<?xml version="1.0" encoding="UTF-8" standalone="no"?>
<svg
   xmlns:dc="http://purl.org/dc/elements/1.1/"
   xmlns:cc="http://creativecommons.org/ns#"
   xmlns:rdf="http://www.w3.org/1999/02/22-rdf-syntax-ns#"
   xmlns:svg="http://www.w3.org/2000/svg"
   xmlns="http://www.w3.org/2000/svg"
   xmlns:sodipodi="http://sodipodi.sourceforge.net/DTD/sodipodi-0.dtd"
   xmlns:inkscape="http://www.inkscape.org/namespaces/inkscape"
   width="600mm"
   height="600mm"
   viewBox="0 0 600 600"
   version="1.1"
   id="svg8"
   inkscape:version="1.0.2 (e86c870879, 2021-01-15, custom)"
   sodipodi:docname="SGlogoV2.svg"
   inkscape:export-filename="C:\Users\Spears Goode\SGlogoV2.png"
   inkscape:export-xdpi="105.83334"
   inkscape:export-ydpi="105.83334">
  <defs
     id="defs2">
    <inkscape:path-effect
       effect="bspline"
       id="path-effect981"
       is_visible="true"
       lpeversion="1"
       weight="33.333333"
       steps="2"
       helper_size="0"
       apply_no_weight="true"
       apply_with_weight="true"
       only_selected="false" />
    <inkscape:path-effect
       effect="bspline"
       id="path-effect935"
       is_visible="true"
       lpeversion="1"
       weight="33.333333"
       steps="2"
       helper_size="0"
       apply_no_weight="true"
       apply_with_weight="true"
       only_selected="false" />
    <inkscape:path-effect
       effect="bspline"
       id="path-effect106"
       is_visible="true"
       lpeversion="1"
       weight="33.333333"
       steps="2"
       helper_size="0"
       apply_no_weight="true"
       apply_with_weight="true"
       only_selected="false" />
    <inkscape:path-effect
       effect="bspline"
       id="path-effect83"
       is_visible="true"
       lpeversion="1"
       weight="33.333333"
       steps="2"
       helper_size="0"
       apply_no_weight="true"
       apply_with_weight="true"
       only_selected="false" />
    <inkscape:path-effect
       effect="bspline"
       id="path-effect69"
       is_visible="true"
       lpeversion="1"
       weight="33.333333"
       steps="2"
       helper_size="0"
       apply_no_weight="true"
       apply_with_weight="true"
       only_selected="false" />
    <inkscape:path-effect
       effect="bspline"
       id="path-effect3791"
       is_visible="true"
       weight="33.333333"
       steps="2"
       helper_size="0"
       apply_no_weight="true"
       apply_with_weight="true"
       only_selected="false" />
    <inkscape:path-effect
       effect="bspline"
       id="path-effect3787"
       is_visible="true"
       weight="33.333333"
       steps="2"
       helper_size="0"
       apply_no_weight="true"
       apply_with_weight="true"
       only_selected="false" />
    <inkscape:path-effect
       effect="bspline"
       id="path-effect3762"
       is_visible="true"
       weight="70.8333"
       steps="2"
       helper_size="0"
       apply_no_weight="true"
       apply_with_weight="true"
       only_selected="false" />
  </defs>
  <sodipodi:namedview
     id="base"
     pagecolor="#ffffff"
     bordercolor="#666666"
     borderopacity="1.0"
     inkscape:pageopacity="0.0"
     inkscape:pageshadow="2"
     inkscape:zoom="0.44214412"
     inkscape:cx="957.66459"
     inkscape:cy="1073.069"
     inkscape:document-units="mm"
     inkscape:current-layer="layer3"
     showgrid="false"
     inkscape:window-width="1920"
     inkscape:window-height="1027"
     inkscape:window-x="-8"
     inkscape:window-y="-8"
     inkscape:window-maximized="1"
     inkscape:document-rotation="0" />
  <metadata
     id="metadata5">
    <rdf:RDF>
      <cc:Work
         rdf:about="">
        <dc:format>image/svg+xml</dc:format>
        <dc:type
           rdf:resource="http://purl.org/dc/dcmitype/StillImage" />
        <dc:title></dc:title>
      </cc:Work>
    </rdf:RDF>
  </metadata>
  <g
     inkscape:groupmode="layer"
     id="layer4"
     inkscape:label="Layer 4"
     style="display:inline;opacity:1">
    <ellipse
       id="path3713-9-7"
       cx="-19.360678"
       cy="411.37082"
       rx="195.94066"
       ry="320.14935"
       style="opacity:0.6;fill:#eed7f4;stroke-width:0.53944"
       transform="matrix(0.60414195,-0.79687672,0.73892657,0.67378597,0,0)" />
    <ellipse
       id="ellipse65"
       cx="-429.09891"
       cy="-71.444267"
       rx="195.94066"
       ry="320.14935"
       style="opacity:0.6;fill:#eed7f4;stroke-width:0.53944"
       transform="matrix(-0.60414195,-0.79687672,-0.73892657,0.67378597,0,0)" />
  </g>
  <g
     inkscape:groupmode="layer"
     id="layer2"
     inkscape:label="red"
     style="display:inline;opacity:0.6"
     transform="translate(0,100)">
    <ellipse
       id="path3713"
       cx="357.76196"
       cy="30.3339"
       rx="184.35867"
       ry="301.33807"
       style="fill:#d40000;stroke-width:0.532752"
       transform="matrix(0.89778527,0.44043343,-0.62018038,0.78445924,0,0)" />
    <text
       xml:space="preserve"
       style="font-style:normal;font-weight:normal;font-size:246.944px;line-height:1.25;font-family:sans-serif;letter-spacing:0px;word-spacing:0px;fill:#000000;fill-opacity:1;stroke:none;stroke-width:0.264583"
       x="-131.53571"
       y="365.44049"
       id="text3766" />
    <text
       xml:space="preserve"
       style="font-style:normal;font-variant:normal;font-weight:normal;font-stretch:normal;font-size:246.944px;line-height:1.25;font-family:'Leelawadee UI';-inkscape-font-specification:'Leelawadee UI';letter-spacing:0px;word-spacing:0px;fill:#000000;fill-opacity:1;stroke:none;stroke-width:0.264583"
       x="-223.00594"
       y="168.1369"
       id="text24" />
  </g>
  <g
     inkscape:label="blue"
     inkscape:groupmode="layer"
     id="layer1"
     transform="translate(0,303)"
     style="display:inline;opacity:0.6">
    <ellipse
       id="path3713-9"
       cx="224.60214"
       cy="216.0016"
       rx="178.59766"
       ry="304.85422"
       style="fill:#000080;stroke-width:0.542336"
       transform="matrix(0.64775649,-0.76184744,0.72485413,0.68890238,0,0)" />
  </g>
  <g
     inkscape:groupmode="layer"
     id="layer3"
     inkscape:label="s"
     style="display:inline"
     transform="translate(0,100)">
    <path
       style="display:inline;opacity:1;fill:#270e34;fill-opacity:0.976471;stroke:#270e34;stroke-width:0.264583px;stroke-linecap:butt;stroke-linejoin:miter;stroke-opacity:0.976471"
       d="M 303.80617,-37.02734 C 268.30053,-51.788112 232.79519,-66.548755 193.00088,-68.54354 153.20657,-70.538325 109.12373,-59.76695 83.392002,-31.940767 57.66027,-4.1145838 50.280031,40.765234 53.571439,79.06428 c 3.291408,38.29905 17.253883,70.01379 31.21678,101.7295 13.364554,9.07595 26.729521,18.15218 95.446331,18.45127 68.71681,0.2991 192.78526,-8.17832 260.40698,-3.04172 67.62171,5.1366 78.79156,23.88599 86.07228,52.31099 7.28071,28.425 10.67157,66.52223 -0.69846,98.33819 -11.37003,31.81595 -37.49952,57.34705 -77.19469,65.02683 -39.69516,7.67978 -92.95285,-2.49304 -146.21132,-12.66601 30.51889,13.36449 61.03749,26.72885 98.73802,30.31929 37.70052,3.59045 82.57947,-2.59288 111.30357,-28.12543 28.7241,-25.53255 41.2902,-70.41147 39.79424,-110.30619 -1.49596,-39.89471 -17.05444,-74.80156 -32.61309,-109.70879 -12.666,-5.58516 -25.33171,-11.1702 -93.74978,-10.17293 -68.41806,0.99727 -192.58716,8.57706 -260.55758,0.39886 -67.970415,-8.1782 -79.738764,-32.11382 -87.418572,-60.43913 -7.679809,-28.325303 -11.270121,-61.037053 -2.59304,-91.556681 8.67708,-30.519627 29.620562,-58.843206 69.715012,-67.91927 40.09444,-9.076063 99.33548,1.096638 158.57805,11.269601 z"
       id="path81"
       inkscape:path-effect="#path-effect106"
       inkscape:original-d="m 303.80617,-37.02734 c 0,0 -71.01103,-29.521283 -106.51693,-44.282317 -44.08259,10.771643 -88.16543,21.543019 -132.248546,32.314131 -7.380124,44.8809916 -14.760363,89.760809 -22.141167,134.642184 13.963446,31.716612 41.888692,95.147122 41.888692,95.147122 0,0 26.729481,18.15223 40.093661,27.22785 124.0695,-8.4772 248.13795,-16.95461 372.21061,-25.4326 11.17083,18.75085 22.34068,37.50024 33.51095,56.25051 3.39132,38.09976 6.78217,76.19699 10.17297,114.29626 -26.13083,25.53293 -52.26032,51.06403 -78.39167,76.59643 -53.25928,-10.17291 -159.7754,-30.5189 -159.7754,-30.5189 0,0 61.03744,26.72897 91.55668,40.09346 44.8819,-6.18343 89.76085,-12.36675 134.64221,-18.55071 12.56711,-44.88135 25.13321,-89.76027 37.6998,-134.64217 -15.5587,-34.90768 -46.67595,-104.7217 -46.67595,-104.7217 0,0 -25.33177,-11.17007 -37.99801,-16.75549 -124.16981,7.58011 -248.33891,15.1599 -372.51105,22.73959 C 97.554413,163.43989 85.786063,139.50427 74.016835,115.56713 70.426572,82.853681 66.83626,50.141931 63.245468,17.427951 c 20.945018,-28.325029 41.888502,-56.648609 62.833002,-84.974179 59.24405,10.173436 177.7277,30.518888 177.7277,30.518888 z"
       sodipodi:nodetypes="ccccccccccccccccccccc" />
  </g>
  <g
     inkscape:groupmode="layer"
     id="layer5"
     inkscape:label="g">
    <path
       style="fill:#270e34;fill-opacity:0.976471;stroke:#270e34;stroke-width:0.264583px;stroke-linecap:butt;stroke-linejoin:miter;stroke-opacity:0.976471"
       d="m 518.82121,283.04779 c 15.55865,-35.1067 31.11725,-70.21328 33.11202,-111.6032 C 553.92799,130.05468 542.37136,82.43337 510.02209,56.573702 477.67283,30.714035 424.67276,26.729067 374.90393,37.50062 325.13511,48.272173 278.65955,73.803811 234.97559,106.41716 191.29163,139.03052 150.40031,178.72502 117.28827,227.49548 84.176239,276.26594 58.869534,334.05291 53.877759,384.7703 c -4.991776,50.71739 10.351353,94.15638 39.674107,118.79127 29.322754,24.63489 72.605994,30.41928 109.776794,26.55277 37.1708,-3.86652 68.22537,-17.3836 99.28068,-30.90101 -29.85849,-17.20095 -59.71667,-34.40172 -87.51177,-57.36399 -27.79509,-22.96227 -53.52695,-51.68621 -79.25857,-80.40989 0,0 -12.5666,46.67597 -12.5666,46.67597 33.51094,19.94699 67.02202,39.89405 90.95853,55.1536 23.93651,15.25954 38.29774,25.831 39.69399,33.51074 1.39626,7.67974 -10.17234,12.46675 -31.31652,15.95757 -21.14417,3.49082 -51.86128,5.6849 -80.68527,-5.78473 -28.82398,-11.46963 -55.627307,-36.48607 -65.446694,-72.05576 -9.819387,-35.5697 -2.473138,-81.03701 18.271735,-127.51359 20.744869,-46.47657 54.853539,-93.74999 92.223939,-133.12285 37.3704,-39.37287 77.99863,-70.84129 122.68087,-92.783433 44.68223,-21.942141 93.4129,-34.35532 134.13663,-28.59372 40.72373,5.7616 73.43548,29.69702 84.60586,71.087853 11.17037,41.39084 0.79818,100.23307 -9.57426,159.07669 z"
       id="path979"
       inkscape:path-effect="#path-effect981"
       inkscape:original-d="m 518.82121,283.04779 c 0,0 31.11757,-70.21314 46.67596,-105.32011 C 553.92818,130.05463 542.37154,82.433325 530.78941,34.707763 477.67281,30.714278 424.67274,26.72931 371.61243,22.739568 325.13528,48.272486 278.65972,73.804128 232.18296,99.336011 191.2919,139.03079 150.40057,178.72529 109.50897,218.41954 84.176558,276.26608 58.869853,334.05305 33.510944,391.95836 c 15.375192,43.52928 30.718322,86.96827 46.077547,130.45332 43.286099,5.785 86.569339,11.56939 129.854919,17.35387 31.05619,-13.51741 93.16593,-40.55222 93.16593,-40.55222 0,0 -59.71672,-34.40164 -89.57548,-51.60285 C 187.3025,418.88706 135.839,361.43945 135.839,361.43945 l -12.5666,46.67597 c 0,0 67.02197,39.89413 100.53283,59.84096 14.36217,10.57223 28.7234,21.14369 43.08549,31.71571 -11.56941,4.78772 -23.13801,9.57474 -34.70776,14.36186 -30.71871,2.19448 -61.43582,4.38856 -92.15509,6.58251 -26.92873,-25.13348 -53.732055,-50.14992 -80.78531,-75.39965 7.414788,-45.88962 14.761037,-91.35693 22.14116,-137.0358 34.10962,-47.27412 68.21829,-94.54753 102.32806,-141.82312 40.63096,-31.47006 81.25919,-62.93849 121.88962,-94.409085 48.73389,-12.413666 97.46456,-24.826845 146.19792,-37.241042 32.71399,23.937131 65.42574,47.872552 98.13921,71.809157 -10.37239,58.84507 -31.11732,176.53087 -31.11732,176.53087 z"
       sodipodi:nodetypes="cccccccccccccccccccccccc" />
  </g>
</svg>
