<?xml version="1.0" encoding="UTF-8" standalone="no"?>
<!-- Created with Inkscape (http://www.inkscape.org/) -->

<svg
   xmlns:dc="http://purl.org/dc/elements/1.1/"
   xmlns:cc="http://creativecommons.org/ns#"
   xmlns:rdf="http://www.w3.org/1999/02/22-rdf-syntax-ns#"
   xmlns:svg="http://www.w3.org/2000/svg"
   xmlns="http://www.w3.org/2000/svg"
   xmlns:sodipodi="http://sodipodi.sourceforge.net/DTD/sodipodi-0.dtd"
   xmlns:inkscape="http://www.inkscape.org/namespaces/inkscape"
   width="600mm"
   height="600mm"
   viewBox="0 0 600 600"
   version="1.1"
   id="svg8"
   inkscape:version="0.92.3 (2405546, 2018-03-11)"
   sodipodi:docname="Logo.svg">
  <defs
     id="defs2">
    <inkscape:path-effect
       effect="bspline"
       id="path-effect3791"
       is_visible="true"
       weight="33.333333"
       steps="2"
       helper_size="0"
       apply_no_weight="true"
       apply_with_weight="true"
       only_selected="false" />
    <inkscape:path-effect
       effect="bspline"
       id="path-effect3787"
       is_visible="true"
       weight="33.333333"
       steps="2"
       helper_size="0"
       apply_no_weight="true"
       apply_with_weight="true"
       only_selected="false" />
    <inkscape:path-effect
       effect="bspline"
       id="path-effect3762"
       is_visible="true"
       weight="70.8333"
       steps="2"
       helper_size="0"
       apply_no_weight="true"
       apply_with_weight="true"
       only_selected="false" />
  </defs>
  <sodipodi:namedview
     id="base"
     pagecolor="#ffffff"
     bordercolor="#666666"
     borderopacity="1.0"
     inkscape:pageopacity="0.0"
     inkscape:pageshadow="2"
     inkscape:zoom="0.35"
     inkscape:cx="54.22966"
     inkscape:cy="1465.6922"
     inkscape:document-units="mm"
     inkscape:current-layer="layer4"
     showgrid="false"
     inkscape:window-width="1920"
     inkscape:window-height="1017"
     inkscape:window-x="-8"
     inkscape:window-y="-8"
     inkscape:window-maximized="1" />
  <metadata
     id="metadata5">
    <rdf:RDF>
      <cc:Work
         rdf:about="">
        <dc:format>image/svg+xml</dc:format>
        <dc:type
           rdf:resource="http://purl.org/dc/dcmitype/StillImage" />
        <dc:title />
      </cc:Work>
    </rdf:RDF>
  </metadata>
  <g
     inkscape:groupmode="layer"
     id="layer4"
     inkscape:label="Layer 4"
     style="opacity:1">
    <ellipse
       id="path3713-9-7"
       cx="-18.3193"
       cy="407.79932"
       rx="184.98833"
       ry="333.12738"
       style="opacity:0.6;fill:#eed7f4;stroke-width:0.56110406"
       transform="matrix(0.61316692,-0.78995337,0.73418922,0.67894491,0,0)" />
    <ellipse
       id="path3713-9-7-6"
       cx="427.49854"
       cy="42.458073"
       rx="184.98833"
       ry="333.12738"
       style="opacity:0.6;fill:#eed7f4;stroke-width:0.56110406"
       transform="matrix(0.78585149,0.61841526,-0.68382033,0.72965043,0,0)" />
  </g>
  <g
     inkscape:groupmode="layer"
     id="layer2"
     inkscape:label="Layer 2"
     style="opacity:0.6"
     transform="translate(0,100)">
    <ellipse
       id="path3713"
       cx="357.76196"
       cy="30.3339"
       rx="184.35867"
       ry="301.33807"
       style="fill:#d40000;stroke-width:0.53275174"
       transform="matrix(0.89778527,0.44043343,-0.62018038,0.78445924,0,0)" />
    <text
       xml:space="preserve"
       style="font-style:normal;font-weight:normal;font-size:246.94444275px;line-height:1.25;font-family:sans-serif;letter-spacing:0px;word-spacing:0px;fill:#000000;fill-opacity:1;stroke:none;stroke-width:0.26458332"
       x="-131.53571"
       y="365.44049"
       id="text3766"><tspan
         sodipodi:role="line"
         id="tspan3764"
         x="-131.53571"
         y="590.73541"
         style="stroke-width:0.26458332" /></text>
    <text
       xml:space="preserve"
       style="font-style:normal;font-variant:normal;font-weight:normal;font-stretch:normal;font-size:246.94444275px;line-height:1.25;font-family:'Leelawadee UI';-inkscape-font-specification:'Leelawadee UI';letter-spacing:0px;word-spacing:0px;fill:#000000;fill-opacity:1;stroke:none;stroke-width:0.26458332"
       x="-223.00594"
       y="168.1369"
       id="text24"><tspan
         sodipodi:role="line"
         id="tspan22"
         x="-223.00594"
         y="390.57321"
         style="stroke-width:0.26458332" /></text>
  </g>
  <g
     inkscape:label="Layer 1"
     inkscape:groupmode="layer"
     id="layer1"
     transform="translate(0,303)"
     style="opacity:0.6">
    <ellipse
       id="path3713-9"
       cx="225.7724"
       cy="212.79152"
       rx="170.61572"
       ry="308.28775"
       style="fill:#000080;stroke-width:0.51838654"
       transform="matrix(0.66287713,-0.74872819,0.71948139,0.69451172,0,0)" />
  </g>
  <g
     inkscape:groupmode="layer"
     id="layer3"
     inkscape:label="Layer 3"
     style="display:inline"
     transform="translate(0,100)">
    <path
       style="fill:#000000;stroke:#000000;stroke-width:0.26458332px;stroke-linecap:butt;stroke-linejoin:miter;stroke-opacity:1"
       d="m 523.11916,175.19213 c 2.51988,1.00793 14.86709,-26.45831 22.04858,-49.38886 7.1815,-22.93055 9.19738,-41.325387 9.57533,-61.232111 0.37795,-19.906724 -0.88198,-41.32537 -8.44151,-60.6020482 -7.55953,-19.2766778 -21.41865,-36.4115978 -36.15964,-48.0028258 -14.74098,-11.591229 -30.36385,-17.63879 -48.00285,-21.292612 -17.639,-3.653823 -37.29335,-4.913717 -59.59418,-2.141908 -22.30083,2.771808 -47.24659,9.575198 -68.91753,17.764759 -21.67095,8.189561 -40.06513,17.764612 -60.22431,29.608111 -20.15918,11.8434995 -42.08105,25.9541307 -64.12994,43.845182 -22.04889,17.891051 -44.22324,39.561439 -64.13002,63.751889 -19.90677,24.190454 -37.54567,50.900774 -50.648867,73.327344 -13.1032,22.42658 -21.670517,40.56912 -28.474239,59.46826 -6.803722,18.89913 -11.843231,38.55322 -14.489147,55.81445 -2.645916,17.26124 -2.897891,32.12775 -1.889954,46.61716 1.007938,14.48941 3.256727,28.48187 10.625562,43.60077 7.368835,15.1189 19.612443,30.86068 31.959807,40.81414 12.347368,9.95345 24.694548,13.98518 37.041788,17.26097 12.34724,3.27579 24.69447,5.79564 38.04966,6.80355 13.3552,1.00791 27.71829,0.50394 43.08934,-1.63796 15.37105,-2.1419 31.75001,-5.92166 49.64089,-11.84331 17.89088,-5.92166 37.29367,-13.98516 43.5932,-19.02475 6.29953,-5.03959 -0.50405,-7.05547 -16.26324,-16.30164 -15.75919,-9.24617 -40.93735,-26.03161 -63.112,-43.79653 -22.17466,-17.76492 -41.57738,-36.66368 -56.31847,-52.16073 -14.74109,-15.49704 -24.82045,-27.59227 -33.38786,-21.2928 -8.56742,6.29946 -15.62292,30.99374 -10.4571,41.32528 5.16581,10.33153 22.55261,6.29981 40.30476,11.33955 17.75214,5.03973 35.86979,19.15083 55.52458,33.00997 19.65478,13.85914 40.84665,27.46628 45.87478,36.99185 5.02813,9.52556 -6.51459,15.16867 -23.27185,19.95647 -16.75726,4.78781 -38.93125,8.81945 -59.46814,8.94546 -20.53688,0.12602 -39.43543,-3.65369 -55.43659,-11.46528 -16.00116,-7.81158 -29.104195,-19.65472 -38.553634,-33.38794 -9.449439,-13.73321 -15.245073,-29.35622 -17.765049,-47.62049 -2.519976,-18.26426 -1.763688,-39.18825 2.646034,-60.73276 4.409722,-21.54451 12.473322,-43.7194 25.668774,-69.9958 13.195455,-26.27639 31.657795,-56.87837 51.942445,-83.84053 20.28464,-26.962159 42.45947,-50.39692 67.27977,-71.437452 24.8203,-21.040533 52.28689,-39.687576 77.48518,-53.546612 25.1983,-13.859035 48.12911,-22.930563 69.79726,-28.869132 21.66814,-5.938568 41.57983,-8.676425 59.84851,-7.92046 18.26868,0.755966 34.64787,5.039754 49.64078,12.851186 14.9929,7.811433 28.60019,19.150845 38.55353,34.0178187 9.95333,14.8669738 16.25294,33.2618193 19.15078,53.9245363 2.89785,20.662716 2.39389,43.592837 -1.51188,69.799485 -3.90577,26.20664 -11.21322,55.68842 -8.69334,56.69635 z"
       id="path3785"
       inkscape:connector-curvature="0"
       inkscape:path-effect="#path-effect3787"
       inkscape:original-d="m 513.29167,203.66666 c 12.34749,-27.46654 24.6947,-54.93279 37.04166,-82.3988 2.01615,-18.39511 4.03202,-36.789951 6.04763,-55.184527 C 555.12129,44.664419 553.86137,23.245772 552.60117,1.8273843 538.74232,-15.307803 524.8832,-32.442719 511.02382,-49.577378 c -15.62276,-6.047884 -31.24563,-12.095448 -46.86906,-18.142856 -19.65467,-1.260197 -39.30902,-2.520091 -58.96428,-3.779762 -24.94647,6.80339 -49.89223,13.606781 -74.83928,20.410713 -18.39484,9.575267 -36.78902,19.150318 -55.18453,28.726191 C 253.24383,-8.2519337 231.32196,5.8586993 209.39882,19.970241 187.22422,41.640863 165.04987,63.311253 142.875,84.982153 125.23638,111.6922 107.59749,138.40252 89.958329,165.1131 c -8.56719,18.14258 -17.134506,36.28513 -25.702377,54.42855 -5.039504,19.65484 -10.079014,39.30893 -15.119047,58.96429 -0.251724,14.86706 -0.503699,29.73357 -0.755953,44.60121 2.268169,14.11113 4.516957,28.10359 6.803572,42.33332 12.451048,16.00789 24.69466,31.74967 37.041663,47.625 12.347533,4.03149 24.694723,8.06322 37.041673,12.09523 12.34748,2.51959 24.69471,5.03943 37.04167,7.55955 14.36336,-0.50424 28.72645,-1.00822 43.08928,-1.51193 16.37924,-3.78002 32.7582,-7.55978 49.1369,-11.33927 19.40305,-8.06376 38.80584,-16.12726 58.20834,-24.19049 -6.8033,-2.01613 -13.60688,-4.03201 -20.41071,-6.04762 -24.94705,-16.12781 -49.8926,-33.26215 -74.83929,-49.89285 -19.40256,-18.89911 -38.80529,-37.79787 -58.20833,-56.69643 -10.07911,-12.09551 -20.15846,-24.19074 -30.23811,-36.28573 -7.05529,24.69421 -14.11079,49.38849 -21.16665,74.08335 17.38727,-4.03203 34.77407,-8.06375 52.16071,-12.09523 18.11792,14.11085 36.23557,28.22195 54.35297,42.33333 21.19214,13.60688 42.384,27.21403 63.5756,40.82143 -11.08698,5.54334 -22.67831,11.08702 -34.01786,16.63094 -22.17495,4.03159 -44.34894,8.06323 -66.5238,12.09525 -18.89881,-3.78008 -37.79736,-7.55978 -56.69644,-11.33928 -13.10305,-11.84365 -26.206081,-23.68679 -39.309521,-35.52978 -5.79538,-15.62328 -11.591006,-31.24629 -17.386905,-46.86903 0.504228,-20.91476 1.512169,-41.82965 2.267857,-62.74406 8.063648,-22.17457 16.127248,-44.34946 24.190478,-66.52379 18.142861,-30.48992 36.789951,-60.98044 55.184521,-91.47025 22.17465,-23.434547 44.34948,-46.869307 66.52381,-70.303567 27.46622,-18.646875 54.93281,-37.2939167 82.39881,-55.940478 22.93057,-9.071594 45.86138,-18.143122 68.79168,-27.214286 20.4107,-2.772051 40.31771,-5.543915 60.47618,-8.315476 16.379,4.283403 32.75819,8.567196 49.13691,12.851191 13.60725,11.338893 27.21454,22.678308 40.82142,34.0178559 6.29987,18.3945738 12.59948,36.7894191 18.89882,55.1845231 -0.50371,22.930444 -1.00768,45.860565 -1.51192,68.791667 -7.30736,29.48223 -14.61481,58.96401 -21.92261,88.44642 z"
       sodipodi:nodetypes="ccccccccccccccccccccccccccccccccccccccccccccccc" />
    <path
       style="fill:#000000;stroke:#000000;stroke-width:0.26458332px;stroke-linecap:butt;stroke-linejoin:miter;stroke-opacity:1"
       d="m 286.12811,-36.348158 c -3.14978,0.377976 -27.08807,-7.937429 -48.50686,-13.103161 -21.41879,-5.165733 -40.31725,-7.181568 -59.4682,-6.803623 -19.15096,0.377946 -38.55324,3.1497 -54.93247,9.197331 -16.37922,6.047632 -29.734165,15.370892 -38.553722,28.222032 -8.819556,12.8511404 -13.103194,29.229762 -15.119153,44.979134 -2.015958,15.749371 -1.763983,30.867852 1.511842,50.018994 3.275825,19.151141 9.57525,42.333021 19.024793,60.224201 9.449542,17.89118 22.0485,30.49014 42.71142,42.4595 20.66292,11.96936 49.38889,23.30856 90.84034,31.12005 41.45145,7.81149 95.5463,12.08876 144.25264,8.17706 48.70634,-3.9117 91.73064,-15.9887 115.37934,-24.18672 23.64869,-8.19803 27.85686,-12.49867 34.91226,-2.16725 7.05539,10.33141 16.95826,35.29456 23.92566,59.49363 6.96741,24.19907 10.99909,47.63325 11.25112,69.17802 0.25203,21.54477 -3.27566,41.19905 -11.33919,58.08228 -8.06352,16.88323 -20.66226,30.99381 -36.78955,41.07347 -16.12728,10.07966 -35.78128,16.12704 -53.54654,17.76504 -17.76526,1.63799 -33.63973,-1.13374 -49.38898,-4.78755 -15.74925,-3.65382 -31.37204,-8.18946 -48.50701,-15.11903 -17.13496,-6.92957 -35.76321,-16.24371 -25.67378,-15.61312 10.08944,0.63058 48.85638,11.20339 79.72448,13.47118 30.86811,2.26779 53.7987,-3.77984 71.18548,-12.85127 17.38679,-9.07143 29.2302,-21.16683 37.92351,-37.41961 8.69331,-16.25278 14.23709,-36.66393 15.119,-56.94845 0.88191,-20.28451 -2.89791,-40.44355 -7.93756,-55.43648 -5.03965,-14.99294 -11.33932,-24.82042 -27.21405,-25.8284 -15.87473,-1.00798 -41.325,6.80348 -78.61912,10.70933 -37.29412,3.90585 -86.43016,3.90584 -126.2439,1.512 -39.81375,-2.39385 -70.30366,-7.18151 -101.04576,-15.119 -30.74209,-7.93749 -61.736,-19.02474 -82.2729,-32.38002 C 88.194354,178.21613 78.115035,162.59319 69.169594,143.82033 60.224153,125.04747 52.412644,103.12485 48.632911,82.210111 44.853177,61.295369 45.105161,41.388627 47.12107,23.623723 49.136979,5.8588192 52.916741,-9.7641951 58.964444,-22.489381 c 6.047702,-12.725185 14.363178,-22.552565 23.560639,-29.608048 9.197461,-7.055482 19.276827,-11.339215 30.490107,-14.488971 11.21328,-3.149756 23.56051,-5.16563 39.93609,-5.417829 16.37558,-0.2522 36.79302,1.260203 54.30588,4.410023 17.51286,3.14982 32.12793,7.937515 48.25488,14.867079 16.12696,6.929563 33.76585,16.000993 30.61607,16.378969 z"
       id="path3789"
       inkscape:connector-curvature="0"
       inkscape:path-effect="#path-effect3791"
       inkscape:original-d="m 306.91667,-27.654759 c -23.93823,-8.315739 -47.87652,-16.631147 -71.81548,-24.946428 -18.8987,-2.016155 -37.79716,-4.03199 -56.69643,-6.047619 -19.4027,2.771589 -38.80498,5.543342 -58.20833,8.315476 -13.35511,9.323296 -26.710051,18.64656 -40.065481,27.970237 -4.28346,16.3787033 -8.567102,32.757324 -12.851187,49.136904 0.252254,15.119111 0.504229,30.237592 0.755952,45.357149 6.299971,23.182645 12.599397,46.36452 18.898815,69.54761 12.59962,12.59909 25.198581,25.19805 37.797611,37.79762 28.72667,11.3391 57.45264,22.6783 86.17857,34.01785 54.17686,4.28347 108.27171,8.56074 162.52976,12.8512 43.15456,-12.11375 86.17886,-24.19076 129.26787,-36.28573 4.20843,-4.3009 8.41661,-8.60153 12.62451,-12.9019 9.9032,24.96306 19.80607,49.92621 29.70882,74.89 4.03204,23.43443 8.06372,46.86861 12.09523,70.30358 -3.52754,19.65466 -7.05523,39.30894 -10.58333,58.9643 -12.59915,14.11107 -25.19789,28.22165 -37.79762,42.33331 -19.6549,6.04748 -39.3089,12.09486 -58.9643,18.14286 -15.87502,-2.77214 -31.74949,-5.54387 -47.62498,-8.31547 -15.62297,-4.53604 -31.24576,-9.07169 -46.86905,-13.60714 -18.64657,-9.32369 -37.27482,-18.63782 -55.94047,-27.97026 38.84444,10.59361 77.61138,21.16642 116.41665,31.75001 22.93081,-6.04788 45.8614,-12.09551 68.79167,-18.14286 11.84336,-12.09532 23.68677,-24.19072 35.52976,-36.2857 5.54379,-20.41054 11.08758,-40.82169 16.63097,-61.23215 -3.77944,-20.15868 -7.55928,-40.31771 -11.3393,-60.47618 -6.29926,-9.82755 -12.59893,-19.65503 -18.89879,-29.48215 -25.44996,7.81119 -50.90023,15.62266 -76.3512,23.43452 -49.13722,-2.7e-4 -98.27326,-2.7e-4 -147.41071,-1e-5 -30.48999,-4.78798 -60.9799,-9.57565 -91.47024,-14.36308 C 160.26217,216.01362 129.26826,204.92637 98.273807,193.83928 88.194664,178.21593 78.115341,162.59299 68.035713,146.97024 60.224471,125.04736 52.412963,103.12474 44.60119,81.202385 44.853438,61.295372 45.105422,41.38863 45.357142,21.482146 49.137169,5.8588651 52.916931,-9.7641492 56.696428,-25.3869 c 8.315742,-9.827646 16.631218,-19.655026 24.946431,-29.482144 10.07963,-4.283996 20.159001,-8.567727 30.238091,-12.851191 12.34748,-2.016136 24.69471,-4.032011 37.04167,-6.047619 20.40426,1.511142 40.8217,3.023546 61.23215,4.535715 14.61535,4.787434 29.23042,9.575132 43.84524,14.363095 17.63915,9.071164 35.27804,18.142592 52.91666,27.214285 z"
       sodipodi:nodetypes="ccccccccccccccccccccccccccccccccccccccccc" />
  </g>
</svg>
